<svg width="27" height="18" viewBox="0 0 27 18" fill="none" xmlns="http://www.w3.org/2000/svg">
<path d="M3.5 6.8572C2.50478 6.83229 1 6.42863 1 6.42863C1 6.42863 2.28681 4.42438 3.5 3.42863C4.83048 2.3366 5.76976 1.82761 7.5 1.28577C9.70849 0.594164 11.1487 0.857201 13.5 0.857201C15.8513 0.857201 17.2622 0.667239 19.5 1.28577C21.4133 1.81461 22.6187 2.17662 24 3.42863C25.0816 4.40904 26 6.42863 26 6.42863C26 6.42863 24.8008 6.78619 24 6.8572C22.2093 7.01598 19.5 6.00006 19.5 6.00006C19.5 6.00006 19.63 5.45857 19.5 5.14292C19.2657 4.57386 18 4.28577 18 4.28577C18 4.28577 15.2682 3.8572 13.5 3.8572C11.7318 3.8572 9 4.28577 9 4.28577C9 4.28577 7.73431 4.57386 7.5 5.14292C7.37003 5.45857 7.5 6.00006 7.5 6.00006C7.5 6.00006 5.10949 6.89748 3.5 6.8572Z" fill="white"/>
<path d="M11.5001 6H8.50009V8.14286C8.50009 8.14286 6.03856 10.5897 5.00009 12.4286C4.54195 13.2399 4.23762 13.6935 4.00009 14.5714C3.64723 15.8757 4.00009 18 4.00009 18H23.0001C23.0001 18 23.353 15.8757 23.0001 14.5714C22.7626 13.6935 22.4582 13.2399 22.0001 12.4286C20.9616 10.5897 18.5001 8.14286 18.5001 8.14286V6H15.5001V7.71429H11.5001V6Z" fill="white"/>
<path d="M1.00008 7.71442C0.87666 7.39684 1.00041 6.85728 1.00041 6.85728C1.00041 6.85728 2.81346 7.32288 4.00041 7.28585C5.421 7.24154 7.50038 6.42871 7.50038 6.42871C7.50038 6.42871 7.73113 6.82435 7.50038 7.28585C7.28282 7.72096 6.46298 8.31297 6.00038 8.57157C5.16641 9.03777 3.29991 9.31437 2.00008 8.57157C1.54056 8.30897 1.17462 8.16355 1.00008 7.71442Z" fill="white"/>
<path d="M19.1343 7.69908C18.9954 7.21131 19.3339 6.4248 19.3339 6.4248C19.3339 6.4248 21.8174 7.18707 22.9996 7.28575C24.4144 7.40387 25.9997 6.85721 25.9997 6.85721C25.9997 6.85721 25.9451 7.62598 25.6431 8.01571C25.3374 8.41001 25.0175 8.54764 24.5189 8.7512C23.62 9.11806 22.9563 9.03277 21.9746 8.89075C20.7568 8.71469 19.4273 8.72737 19.1343 7.69908Z" fill="white"/>
<path d="M11 10.9287C11.5523 10.9287 12 10.5929 12 10.1787C12 9.7645 11.5523 9.42871 11 9.42871C10.4477 9.42871 10 9.7645 10 10.1787C10 10.5929 10.4477 10.9287 11 10.9287Z" fill="#3CAC2A"/>
<path d="M14 10.9287C14.5523 10.9287 15 10.5929 15 10.1787C15 9.7645 14.5523 9.42871 14 9.42871C13.4477 9.42871 13 9.7645 13 10.1787C13 10.5929 13.4477 10.9287 14 10.9287Z" fill="#3CAC2A"/>
<path d="M17 10.9287C17.5523 10.9287 18 10.5929 18 10.1787C18 9.7645 17.5523 9.42871 17 9.42871C16.4477 9.42871 16 9.7645 16 10.1787C16 10.5929 16.4477 10.9287 17 10.9287Z" fill="#3CAC2A"/>
<path d="M11 13.1787C11.5523 13.1787 12 12.8429 12 12.4287C12 12.0145 11.5523 11.6787 11 11.6787C10.4477 11.6787 10 12.0145 10 12.4287C10 12.8429 10.4477 13.1787 11 13.1787Z" fill="#3CAC2A"/>
<path d="M14 13.1787C14.5523 13.1787 15 12.8429 15 12.4287C15 12.0145 14.5523 11.6787 14 11.6787C13.4477 11.6787 13 12.0145 13 12.4287C13 12.8429 13.4477 13.1787 14 13.1787Z" fill="#3CAC2A"/>
<path d="M17 13.1787C17.5523 13.1787 18 12.8429 18 12.4287C18 12.0145 17.5523 11.6787 17 11.6787C16.4477 11.6787 16 12.0145 16 12.4287C16 12.8429 16.4477 13.1787 17 13.1787Z" fill="#3CAC2A"/>
<path d="M11 15.4287C11.5523 15.4287 12 15.0929 12 14.6787C12 14.2645 11.5523 13.9287 11 13.9287C10.4477 13.9287 10 14.2645 10 14.6787C10 15.0929 10.4477 15.4287 11 15.4287Z" fill="#3CAC2A"/>
<path d="M14 15.4287C14.5523 15.4287 15 15.0929 15 14.6787C15 14.2645 14.5523 13.9287 14 13.9287C13.4477 13.9287 13 14.2645 13 14.6787C13 15.0929 13.4477 15.4287 14 15.4287Z" fill="#3CAC2A"/>
<path d="M17 15.4287C17.5523 15.4287 18 15.0929 18 14.6787C18 14.2645 17.5523 13.9287 17 13.9287C16.4477 13.9287 16 14.2645 16 14.6787C16 15.0929 16.4477 15.4287 17 15.4287Z" fill="#3CAC2A"/>
</svg>
